#!OML:ASF F:\VICON\USERDATA\INSTALL\rory3\rory3.ASF
:FULLY-SPECIFIED
:DEGREES
1609
root -3.25068 18.6597 2.18938 -0.660248 -13.4317 2.92806
lowerback 6.33028 0.858376 1.59398
upperback 1.85863 1.14451 -4.42332
thorax -1.50681 0.572635 -5.57405
lowerneck -10.6381 -7.98067 -8.84985
upperneck 5.57409 -10.5581 12.1288
head 4.53967 -4.8181 4.35699
rclavicle 3.97569e-015 -4.77083e-015
rhumerus 36.9887 -2.02608 -6.83676
rradius 60.789
rwrist 48.6922
rhand -68.4228 17.2849
rfingers 7.12502
rthumb -40.1271 -7.90268
lclavicle 3.97569e-015 -4.77083e-015
lhumerus -29.3526 -3.42071 71.3724
lradius 55.783
lwrist -2.06533
lhand -33.5715 16.5309
lfingers 7.12502
lthumb -6.76592 46.4028
rfemur -12.6779 21.0336 16.586
rtibia 30.8868
rfoot -16.8277 -11.7929
rtoes -3.54622
lfemur -4.68689 -0.285719 -8.14032
ltibia 26.9358
lfoot -5.92039 17.4614
ltoes -20.8391
1610
root -3.28034 18.6761 2.2003 -0.667668 -13.3443 2.92311
lowerback 6.30247 0.858161 1.6685
upperback 1.87232 1.1485 -4.47597
thorax -1.47394 0.575617 -5.67178
lowerneck -10.8431 -8.03806 -8.8126
upperneck 5.66687 -10.6302 12.0763
head 4.60417 -4.84601 4.31969
rclavicle -1.00386e-014 1.03368e-014
rhumerus 37.2599 -3.70956 -7.70019
rradius 59.9377
rwrist 48.5316
rhand -67.9925 15.5853
rfingers 7.12502
rthumb -39.7221 -9.72402
lclavicle -1.00386e-014 1.03368e-014
lhumerus -29.4019 -3.31819 71.4007
lradius 55.9028
lwrist -2.06711
lhand -33.6853 16.169
lfingers 7.12502
lthumb -6.87575 46.0373
rfemur -12.3555 20.9882 16.7304
rtibia 30.4823
rfoot -16.698 -11.8698
rtoes -3.36981
lfemur -4.68986 -0.287302 -8.02569
ltibia 26.9547
lfoot -5.56486 17.4058
ltoes -20.7004
1611
root -3.30997 18.6917 2.21527 -0.66961 -13.2369 2.97844
lowerback 6.2114 0.868901 1.65609
upperback 1.85159 1.16141 -4.51891
thorax -1.4425 0.582506 -5.70897
lowerneck -10.8858 -8.03054 -8.69944
upperneck 5.67939 -10.6233 11.9701
head 4.6017 -4.84361 4.26804
rclavicle -1.98785e-015 -3.65764e-014
rhumerus 37.4147 -5.13319 -8.12124
rradius 59.1186
rwrist 47.9528
rhand -67.694 15.0562
rfingers 7.12502
rthumb -39.441 -10.3361
lclavicle -1.98785e-015 -3.65764e-014
lhumerus -29.4025 -3.39553 71.4694
lradius 55.8809
lwrist -1.99115
lhand -33.9035 16.0256
lfingers 7.12502
lthumb -7.08642 45.887
rfemur -12.0272 20.9642 16.7957
rtibia 30.087
rfoot -16.6254 -11.9582
rtoes -3.09748
lfemur -4.72495 -0.396187 -7.99652
ltibia 26.9489
lfoot -5.16017 17.4613
ltoes -20.9579
1612
root -3.33879 18.7033 2.22466 -0.650017 -13.0904 2.90539
lowerback 6.21243 0.872131 1.77797
upperback 1.80008 1.17191 -4.53393
thorax -1.49216 0.586019 -5.79641
lowerneck -10.8941 -8.04833 -8.5004
upperneck 5.72804 -10.6561 11.7423
head 4.59649 -4.86532 4.16193
rclavicle 5.96354e-015 7.95139e-015
rhumerus 37.5961 -6.53555 -8.65042
rradius 58.0931
rwrist 47.4385
rhand -67.5608 13.876
rfingers 7.12502
rthumb -39.3155 -11.5529
lclavicle 5.96354e-015 7.95139e-015
lhumerus -29.3778 -3.47017 71.5548
lradius 55.8478
lwrist -1.9823
lhand -33.9265 16.2777
lfingers 7.12502
lthumb -7.10864 46.1383
rfemur -11.7158 20.8757 16.9983
rtibia 29.6924
rfoot -16.5288 -12.0331
rtoes -3.06987
lfemur -4.77203 -0.539676 -7.82888
ltibia 26.9383
lfoot -4.74739 17.5258
ltoes -21.0711
1613
root -3.3676 18.718 2.23332 -0.601628 -12.9791 2.77909
lowerback 6.1893 0.849722 1.95487
upperback 1.77022 1.15262 -4.53463
thorax -1.50852 0.575529 -5.89731
lowerneck -10.9726 -8.13631 -8.41916
upperneck 5.782 -10.7725 11.6063
head 4.62476 -4.92354 4.09196
rclavicle -6.75868e-015 -3.81667e-014
rhumerus 37.9561 -8.05714 -9.54377
rradius 57.0912
rwrist 47.2354
rhand -67.4284 14.769
rfingers 7.12502
rthumb -39.1907 -10.6961
lclavicle -6.75868e-015 -3.81667e-014
lhumerus -29.3833 -3.34076 71.5803
lradius 55.9018
lwrist -1.99182
lhand -33.6943 16.4464
lfingers 7.12502
lthumb -6.88448 46.3144
rfemur -11.4312 20.8632 17.2477
rtibia 29.2761
rfoot -16.435 -12.1212
rtoes -2.92837
lfemur -4.82026 -0.513511 -7.58333
ltibia 26.9749
lfoot -4.47877 17.4375
ltoes -20.5638
1614
root -3.39649 18.73 2.23906 -0.509408 -12.9101 2.65824
lowerback 6.22227 0.831216 2.06509
upperback 1.65451 1.13263 -4.50752
thorax -1.64722 0.560332 -5.93329
lowerneck -10.8578 -8.21103 -8.45052
upperneck 5.65119 -10.8644 11.6011
head 4.5765 -4.97614 4.09135
rclavicle 3.13086e-014 1.35174e-014
rhumerus 38.3372 -9.37288 -10.4021
rradius 56.2613
rwrist 47.1606
rhand -67.6561 14.5107
rfingers 7.12502
rthumb -39.4053 -10.8921
lclavicle 3.13086e-014 1.35174e-014
lhumerus -29.5733 -3.28205 71.6296
lradius 56.0197
lwrist -1.95717
lhand -33.5405 16.6641
lfingers 7.12502
lthumb -6.73598 46.5369
rfemur -11.2346 20.8744 17.4725
rtibia 28.8619
rfoot -16.2266 -12.22
rtoes -2.77251
lfemur -4.96898 -0.496905 -7.32877
ltibia 27.0499
lfoot -4.2305 17.3808
ltoes -19.9097
1615
root -3.42334 18.7403 2.24779 -0.395567 -12.748 2.5077
lowerback 6.20877 0.808729 2.22964
upperback 1.54779 1.11145 -4.48197
thorax -1.74979 0.545229 -6.00075
lowerneck -10.9007 -8.18601 -8.41937
upperneck 5.67297 -10.8315 11.5763
head 4.58365 -4.95856 4.08042
rclavicle 3.3694e-014 -3.26007e-014
rhumerus 38.6017 -10.5683 -11.1148
rradius 55.5099
rwrist 46.8847
rhand -67.9244 11.0271
rfingers 7.12502
rthumb -39.658 -14.3012
lclavicle 3.3694e-014 -3.26007e-014
lhumerus -29.7433 -3.29794 71.7223
lradius 56.1116
lwrist -1.99883
lhand -33.6294 16.6822
lfingers 7.12502
lthumb -6.82187 46.5523
rfemur -11.0001 20.8103 17.7179
rtibia 28.4218
rfoot -16.0914 -12.317
rtoes -2.70497
lfemur -5.16905 -0.603636 -7.06486
ltibia 27.1341
lfoot -3.85718 17.4019
ltoes -19.8813
1616
root -3.44788 18.7525 2.26069 -0.397629 -12.5425 2.62483
lowerback 6.11189 0.793107 2.16086
upperback 1.5384 1.08529 -4.52312
thorax -1.70913 0.533093 -6.00061
lowerneck -10.9954 -8.09792 -8.31856
upperneck 5.77605 -10.7245 11.5256
head 4.61147 -4.901 4.05543
rclavicle 1.98785e-016 -1.51076e-014
rhumerus 38.8889 -11.8553 -11.7762
rradius 54.7151
rwrist 46.2483
rhand -67.7636 9.87369
rfingers 7.12502
rthumb -39.5066 -15.4993
lclavicle 1.98785e-016 -1.51076e-014
lhumerus -29.8265 -3.29965 71.8603
lradius 56.2281
lwrist -1.99512
lhand -33.7314 16.4204
lfingers 7.12502
lthumb -6.92032 46.2873
rfemur -10.6453 20.7409 17.6878
rtibia 27.9473
rfoot -16.0394 -12.4019
rtoes -2.20611
lfemur -5.28961 -0.721765 -7.12728
ltibia 27.2316
lfoot -3.55196 17.413
ltoes -20.2213
1617
root -3.47066 18.7645 2.27741 -0.466207 -12.527 2.62159
lowerback 6.02105 0.803432 2.24941
upperback 1.55411 1.10483 -4.54031
thorax -1.63765 0.544705 -6.06861
lowerneck -10.8535 -8.02519 -8.32384
upperneck 5.72416 -10.6354 11.5784
head 4.56696 -4.86075 4.08699
rclavicle -5.36719e-015 2.70347e-014
rhumerus 39.2657 -13.1189 -12.5308
rradius 53.9192
rwrist 45.5566
rhand -67.5929 12.4452
rfingers 7.12502
rthumb -39.3458 -12.9749
lclavicle -5.36719e-015 2.70347e-014
lhumerus -29.9157 -3.26103 71.931
lradius 56.3176
lwrist -1.91476
lhand -33.7101 16.3792
lfingers 7.12502
lthumb -6.89975 46.2468
rfemur -10.2229 20.8686 17.8222
rtibia 27.4803
rfoot -15.9205 -12.5372
rtoes -1.85106
lfemur -5.22774 -0.760878 -7.08409
ltibia 27.3061
lfoot -3.2903 17.497
ltoes -20.7387
1618
root -3.49213 18.7731 2.29543 -0.462328 -12.6252 2.32049
lowerback 5.91521 0.834853 2.65849
upperback 1.57737 1.17367 -4.48336
thorax -1.53844 0.581602 -6.24532
lowerneck -10.8208 -8.02834 -8.31463
upperneck 5.65329 -10.6352 11.5649
head 4.53861 -4.86366 4.08331
rclavicle -5.76476e-015 1.82882e-014
rhumerus 39.6018 -14.3191 -13.2243
rradius 53.1719
rwrist 44.8989
rhand -67.6542 12.9707
rfingers 7.12502
rthumb -39.4035 -12.4326
lclavicle -5.76476e-015 1.82882e-014
lhumerus -29.9143 -3.12035 71.9564
lradius 56.2978
lwrist -1.99121
lhand -33.5078 16.5401
lfingers 7.12502
lthumb -6.70442 46.414
rfemur -9.85146 21.0376 18.2748
rtibia 27.0605
rfoot -15.7213 -12.6482
rtoes -1.89037
lfemur -5.11813 -0.687509 -6.71733
ltibia 27.3286
lfoot -2.9393 17.6044
ltoes -21.3245
1619
root -3.51495 18.7812 2.30812 -0.474028 -12.6108 2.29097
lowerback 5.88258 0.856366 2.72685
upperback 1.56638 1.20636 -4.47845
thorax -1.52599 0.598072 -6.28102
lowerneck -10.9686 -8.08857 -8.17339
upperneck 5.77976 -10.7161 11.3479
head 4.58848 -4.90336 3.97952
rclavicle 6.55989e-015 1.59028e-015
rhumerus 39.8737 -15.4281 -13.895
rradius 52.5405
rwrist 44.1837
rhand -67.3789 6.35164
rfingers 7.12502
rthumb -39.1441 -19.127
lclavicle 6.55989e-015 1.59028e-015
lhumerus -29.9451 -3.07088 72.0427
lradius 56.2912
lwrist -2.11462
lhand -33.4394 16.7205
lfingers 7.12502
lthumb -6.63839 46.5965
rfemur -9.54279 21.1338 18.4166
rtibia 26.6834
rfoot -15.621 -12.7599
rtoes -1.66586
lfemur -5.09089 -0.632036 -6.63766
ltibia 27.314
lfoot -2.62049 17.6851
ltoes -21.9733
1620
root -3.53854 18.7907 2.31996 -0.507512 -12.466 2.40863
lowerback 5.85101 0.860176 2.62925
upperback 1.52881 1.204 -4.51366
thorax -1.54895 0.595723 -6.2618
lowerneck -10.877 -8.12276 -8.10903
upperneck 5.8329 -10.7742 11.269
head 4.58689 -4.93638 3.94175
rclavicle 9.83984e-015 1.03368e-014
rhumerus 40.1259 -16.427 -14.6137
rradius 51.9112
rwrist 43.3981
rhand -66.9333 -0.572141
rfingers 7.12502
rthumb -38.7239 -26.1707
lclavicle 9.83984e-015 1.03368e-014
lhumerus -30.0461 -3.17485 72.1696
lradius 56.3436
lwrist -2.02032
lhand -33.4401 16.7449
lfingers 7.12502
lthumb -6.63906 46.6208
rfemur -9.24325 21.0775 18.397
rtibia 26.3224
rfoot -15.5661 -12.8432
rtoes -1.43618
lfemur -5.09019 -0.620099 -6.70495
ltibia 27.3038
lfoot -2.55181 17.7043
ltoes -21.7286
1621
root -3.56043 18.8007 2.33151 -0.482808 -12.28 2.47343
lowerback 5.82329 0.836877 2.61142
upperback 1.45038 1.16977 -4.53141
thorax -1.61904 0.5753 -6.2687
lowerneck -10.8047 -8.10899 -8.12877
upperneck 5.93843 -10.7692 11.2905
head 4.60912 -4.93357 3.95323
rclavicle -3.18055e-015 -6.36111e-015
rhumerus 40.3751 -17.2787 -15.3122
rradius 51.2863
rwrist 42.3773
rhand -66.657 -2.4791
rfingers 7.12502
rthumb -38.4632 -28.1508
lclavicle -3.18055e-015 -6.36111e-015
lhumerus -30.1904 -3.20174 72.2827
lradius 56.3761
lwrist -2.00734
lhand -33.4599 16.5407
lfingers 7.12502
lthumb -6.65823 46.416
rfemur -9.03024 20.9062 18.3989
rtibia 26.0235
rfoot -15.5201 -12.8534
rtoes -1.17576
lfemur -5.12854 -0.668878 -6.71627
ltibia 27.2402
lfoot -2.3805 17.6905
ltoes -20.7671
1622
root -3.57985 18.8108 2.33835 -0.429387 -12.136 2.42802
lowerback 5.84172 0.796044 2.74335
upperback 1.40244 1.12228 -4.53616
thorax -1.68219 0.54862 -6.34792
lowerneck -10.903 -8.08889 -8.11273
upperneck 6.04159 -10.748 11.2963
head 4.65431 -4.91703 3.95004
rclavicle -1.23246e-014 1.90833e-014
rhumerus 40.788 -18.1794 -16.2295
rradius 50.6151
rwrist 41.2309
rhand -66.442 -0.634339
rfingers 7.12502
rthumb -38.2604 -26.3622
lclavicle -1.23246e-014 1.90833e-014
lhumerus -30.2146 -3.17556 72.3363
lradius 56.3533
lwrist -2.12033
lhand -33.5401 16.57
lfingers 7.12502
lthumb -6.73558 46.4429
rfemur -8.85264 20.8385 18.5225
rtibia 25.7417
rfoot -15.3912 -12.9545
rtoes -1.23473
lfemur -5.19385 -0.821002 -6.61501
ltibia 27.1583
lfoot -2.16375 17.7966
ltoes -19.7036
